<svg width="64" height="64" viewBox="0 0 64 64" fill="none" xmlns="http://www.w3.org/2000/svg">
<path d="M0 16C0 7.16344 7.16344 0 16 0H48C56.8366 0 64 7.16344 64 16V48C64 56.8366 56.8366 64 48 64H16C7.16344 64 0 56.8366 0 48V16Z" fill="#F5F5F7"/>
<path d="M48.2207 22.0063L51.0552 19.1719C52.3955 17.8315 52.4614 16.2275 51.165 14.9092L49.9346 13.6567C48.6382 12.3384 46.9902 12.4702 45.6279 13.7886L42.7935 16.6011L48.2207 22.0063ZM19.4805 50.7686L45.562 24.6431L40.1567 19.2378L14.0752 45.3413L11.856 51.23C11.4604 52.3506 12.5811 53.3394 13.5479 52.9878L19.4805 50.7686Z" fill="#5E5CE6"/>
</svg>
